# Exported from Wings 3D 2.2.9
mtllib ./sphere1.mtl
o Sphere_Sphere
#162 vertices, 320 faces
v 0.0 0.0025 0.087272079
v 0.0092099245 -0.004191322900000001 0.09430788300000001
v -0.00351780655 -0.008326878499999999 0.09430788300000001
v -0.01138417 0.0025 0.09430788300000001
v -0.00351780655 0.0133268785 0.09430788300000001
v 0.0092099245 0.009191323 0.09430788300000001
v 0.00351780655 -0.008326878499999999 0.105692117
v -0.0092099245 -0.004191322900000001 0.105692117
v -0.0092099245 0.009191323 0.105692117
v 0.00351780655 0.0133268785 0.105692117
v 0.01138417 0.0025 0.105692117
v 0.0 0.0025 0.11272792100000001
v 0.0054134744999999995 -0.001433073 0.089172939
v -0.0020677216500000002 -0.0038639009000000003 0.089172939
v 0.0033457740999999997 -0.007797036 0.0933084525
v 0.0054134744999999995 0.0064330735 0.089172939
v 0.010826978499999999 0.0025 0.0933084755
v -0.0066914475 0.0025 0.0891729725
v -0.00875922 -0.0038639217500000002 0.093308471
v -0.0020677216500000002 0.008863901 0.089172939
v -0.00875922 0.008863922 0.093308471
v 0.0033457740999999997 0.012797036000000001 0.0933084525
v 0.0121049905 0.006433089 0.1
v 0.0121049905 -0.0014330888 0.1
v 0.0074812895 -0.007797100499999999 0.1
v 0.0 -0.010227921 0.1
v -0.0074812895 -0.007797100499999999 0.1
v -0.0121049905 -0.0014330888 0.1
v -0.0121049905 0.006433089 0.1
v -0.0074812895 0.0127971005 0.1
v 0.0 0.015227921 0.1
v 0.0074812895 0.0127971005 0.1
v 0.00875922 -0.0038639217500000002 0.10669152900000001
v -0.0033457740999999997 -0.007797036 0.10669154750000001
v -0.010826978499999999 0.0025 0.10669152450000001
v -0.0033457740999999997 0.012797036000000001 0.10669154750000001
v 0.00875922 0.008863922 0.10669152900000001
v 0.0066914475 0.0025 0.11082702750000001
v 0.0020677216500000002 -0.0038639009000000003 0.110827061
v -0.0054134744999999995 -0.001433073 0.110827061
v -0.0054134744999999995 0.0064330735 0.110827061
v 0.0020677216500000002 0.008863901 0.110827061
v 0.0063814380000000006 0.011435554 0.10643685750000001
v 0.0104702115 0.0058078645 0.106436821
v 0.0029032829499999998 0.011435537499999999 0.108586449
v 0.00107476725 0.005807849 0.112243488
v 0.009395419 0.0025 0.1085863895
v 0.00347810535 0.0025 0.1122434795
v 0.0056920619999999995 0.009191414 0.1092100705
v 0.00460496605 0.0058456995 0.111384225
v 0.0081228895 0.005845709 0.1092100425
v -0.006526281 0.011330316 0.10643685950000001
v 8.942023e-05 0.0134799265 0.106436863
v -0.0076010435 0.008022417 0.1085864435
v -0.00281383365 0.00454434575 0.112243488
v -0.00460500715 0.009981208 0.109210073
v -0.00175896465 0.007913434 0.111384233
v -0.0006719117 0.011259169500000001 0.1092100745
v -0.010414902 -0.0009780556 0.1064368425
v -0.010414902 0.0059780555 0.1064368425
v -0.0076010435 -0.00302241685 0.1085864435
v -0.00281383365 0.000455654265 0.112243488
v -0.008538106 0.00043226242 0.10921005950000001
v -0.005692052 0.0025 0.1113842225
v -0.008538106 0.0045677376 0.10921005950000001
v 8.942023e-05 -0.0084799265 0.106436863
v -0.006526281 -0.0063303165 0.10643685950000001
v 0.0029032829499999998 -0.006435538 0.108586449
v 0.00107476725 -0.00080784945 0.112243488
v -0.0006719117 -0.0062591695 0.1092100745
v -0.00175896465 -0.0029134339 0.111384233
v -0.00460500715 -0.004981207850000001 0.109210073
v 0.0063814380000000006 -0.006435553500000001 0.10643685750000001
v 0.0104702115 -0.0008078646499999999 0.106436821
v 0.0081228895 -0.00084570885 0.1092100425
v 0.00460496605 -0.0008456996 0.111384225
v 0.0056920619999999995 -0.0041914141000000005 0.1092100705
v 0.0086758775 0.011330363999999999 0.09704131095
v 0.0057171905 0.0134799755 0.10295869025000001
v 0.011079211 0.0080224295 0.09704131245
v 0.012209293999999999 0.00454435705 0.10295867265
v 0.010297123 0.009981258 0.1
v 0.010968976 0.007913465 0.1035179484
v 0.008538148499999999 0.011259227 0.1035179484
v -0.0057171905 0.0134799755 0.09704130975
v -0.0086758775 0.011330363999999999 0.10295868905000001
v -0.00182850955 0.014743476 0.09704131185
v 0.00182850955 0.014743476 0.10295868815
v -0.0039331472 0.0146049715 0.1
v -0.0017589801499999999 0.0146049545 0.1035179603
v -0.005692127999999999 0.013326985999999999 0.10351795675
v -0.012209293999999999 0.00045564279 0.09704132735000001
v -0.011079211 -0.00302242935 0.10295868755000001
v -0.012209293999999999 0.00454435705 0.09704132735000001
v -0.011079211 0.0080224295 0.10295868755000001
v -0.012727921 0.0025 0.1
v -0.012056055 0.0045677483 0.1035179445
v -0.012056055 0.00043225184000000004 0.1035179445
v -0.00182850955 -0.009743476 0.09704131185
v 0.00182850955 -0.009743476 0.10295868815
v -0.0057171905 -0.0084799755 0.09704130975
v -0.0086758775 -0.006330363 0.10295868905000001
v -0.0039331472 -0.0096049715 0.1
v -0.005692127999999999 -0.008326986 0.10351795675
v -0.0017589801499999999 -0.0096049545 0.1035179603
v 0.011079211 -0.00302242935 0.09704131245
v 0.012209293999999999 0.00045564279 0.10295867265
v 0.0057171905 -0.0084799755 0.10295869025000001
v 0.0086758775 -0.006330363 0.09704131095
v 0.010297123 -0.0049812579 0.1
v 0.008538148499999999 -0.006259226 0.1035179484
v 0.010968976 -0.0029134649 0.1035179484
v -8.942023e-05 0.0134799265 0.093563137
v 0.006526281 0.011330316 0.0935631405
v 0.0017589801499999999 0.0146049545 0.09648203970000001
v 0.0039331472 0.0146049715 0.1
v 0.005692127999999999 0.013326985999999999 0.09648204325000001
v -0.0104702115 0.0058078645 0.09356317900000001
v -0.0063814380000000006 0.011435554 0.0935631425
v -0.010968976 0.007913465 0.09648205160000001
v -0.010297123 0.009981258 0.1
v -0.008538148499999999 0.011259227 0.09648205160000001
v -0.0063814380000000006 -0.006435553500000001 0.0935631425
v -0.0104702115 -0.0008078646499999999 0.09356317900000001
v -0.008538148499999999 -0.006259226 0.09648205160000001
v -0.010297123 -0.0049812579 0.1
v -0.010968976 -0.0029134649 0.09648205160000001
v -8.942023e-05 -0.0084799265 0.093563137
v 0.006526281 -0.0063303165 0.0935631405
v 0.005692127999999999 -0.008326986 0.09648204325000001
v 0.0039331472 -0.0096049715 0.1
v 0.0017589801499999999 -0.0096049545 0.09648203970000001
v 0.010414902 0.0059780555 0.09356315750000001
v 0.010414902 -0.0009780556 0.09356315750000001
v 0.012056055 0.0045677483 0.09648205550000001
v 0.012727921 0.0025 0.1
v 0.012056055 0.00043225184000000004 0.09648205550000001
v -0.0029032829499999998 0.011435537499999999 0.09141355100000001
v -0.00107476725 0.005807849 0.08775651200000001
v 0.0076010435 0.008022417 0.0914135565
v 0.00281383365 0.00454434575 0.08775651200000001
v 0.00175896465 0.007913434 0.08861576700000001
v 0.00460500715 0.009981208 0.090789927
v 0.0006719117 0.011259169500000001 0.09078992550000001
v -0.009395419 0.0025 0.0914136105
v -0.00347810535 0.0025 0.0877565205
v -0.00460496605 0.0058456995 0.08861577500000001
v -0.0056920619999999995 0.009191414 0.0907899295
v -0.0081228895 0.005845709 0.0907899575
v -0.0029032829499999998 -0.006435538 0.09141355100000001
v -0.00107476725 -0.00080784945 0.08775651200000001
v -0.00460496605 -0.0008456996 0.08861577500000001
v -0.0081228895 -0.00084570885 0.0907899575
v -0.0056920619999999995 -0.0041914141000000005 0.0907899295
v 0.00281383365 0.000455654265 0.08775651200000001
v 0.0076010435 -0.00302241685 0.0914135565
v 0.005692052 0.0025 0.0886157775
v 0.008538106 0.0045677376 0.0907899405
v 0.008538106 0.00043226242 0.0907899405
v 0.00175896465 -0.0029134339 0.08861576700000001
v 0.0006719117 -0.0062591695 0.09078992550000001
v 0.00460500715 -0.004981207850000001 0.090789927
vt 0.0000000e+0 0.0000000e+0
vn -2.8184959e-7 4.1444170e-9 -1.00000000
vn 0.72360741 -0.52572618 -0.44721841
vn -0.27638910 -0.85064934 -0.44721892
vn -0.89442613 4.3191054e-10 -0.44721573
vn -0.27638905 0.85064934 -0.44721895
vn 0.72360738 0.52572618 -0.44721846
vn 0.27638910 -0.85064934 0.44721892
vn -0.72360741 -0.52572618 0.44721841
vn -0.72360738 0.52572618 0.44721846
vn 0.27638905 0.85064934 0.44721895
vn 0.89442613 4.3191048e-10 0.44721573
vn 2.8184959e-7 4.1444170e-9 1.00000000
vn 0.42532317 -0.30901221 -0.85065366
vn -0.16245636 -0.49999553 -0.85065410
vn 0.26286865 -0.80901259 -0.52573635
vn 0.42532317 0.30901222 -0.85065366
vn 0.85064843 1.4016003e-11 -0.52573496
vn -0.52572943 2.8064891e-9 -0.85065185
vn -0.68818962 -0.49999751 -0.52573524
vn -0.16245637 0.49999554 -0.85065409
vn -0.68818964 0.49999746 -0.52573526
vn 0.26286869 0.80901257 -0.52573635
vn 0.95105746 0.30901409 -8.3795331e-8
vn 0.95105746 -0.30901409 -8.8525919e-8
vn 0.58778600 -0.80901645 6.7680356e-8
vn 0.0000000e+0 -1.00000000 0.0000000e+0
vn -0.58778600 -0.80901645 -6.7680356e-8
vn -0.95105746 -0.30901409 8.8525919e-8
vn -0.95105746 0.30901409 8.3795331e-8
vn -0.58778596 0.80901648 -7.1471966e-8
vn 0.0000000e+0 1.00000000 0.0000000e+0
vn 0.58778596 0.80901648 7.1471966e-8
vn 0.68818962 -0.49999751 0.52573524
vn -0.26286865 -0.80901259 0.52573635
vn -0.85064843 1.4016003e-11 0.52573496
vn -0.26286869 0.80901257 0.52573635
vn 0.68818964 0.49999746 0.52573526
vn 0.52572943 2.8064891e-9 0.85065185
vn 0.16245636 -0.49999553 0.85065410
vn -0.42532317 -0.30901221 0.85065366
vn -0.42532317 0.30901222 0.85065366
vn 0.16245637 0.49999554 0.85065409
vn 0.49132564 0.71050011 0.50377446
vn 0.82755109 0.24773246 0.50377358
vn 0.23085170 0.71049817 0.66475548
vn 8.0492694e-2 0.24773287 0.96547882
vn 0.74705693 -1.7155776e-13 0.66476007
vn 0.26048313 5.4478187e-9 0.96547840
vn 0.45080340 0.51450483 0.72942517
vn 0.37127746 0.26974869 0.88847549
vn 0.62863126 0.26974889 0.72942325
vn -0.52389939 0.68683372 0.50377463
vn 2.0125123e-2 0.86360064 0.50377467
vn -0.60438733 0.43910847 0.66475538
vn -0.21073497 0.15310658 0.96547871
vn -0.35002013 0.58772846 0.72942523
vn -0.14181711 0.43646081 0.88847615
vn -6.2293326e-2 0.68121802 0.72942550
vn -0.81511446 -0.28600798 0.50377362
vn -0.81511445 0.28600798 0.50377362
vn -0.60438733 -0.43910844 0.66475540
vn -0.21073498 -0.15310658 0.96547871
vn -0.66712746 -0.15126583 0.72942416
vn -0.45892426 -3.9354873e-9 0.88847539
vn -0.66712746 0.15126583 0.72942416
vn 2.0125097e-2 -0.86360065 0.50377464
vn -0.52389941 -0.68683373 0.50377460
vn 0.23085173 -0.71049818 0.66475545
vn 8.0492686e-2 -0.24773288 0.96547882
vn -6.2293364e-2 -0.68121801 0.72942550
vn -0.14181713 -0.43646081 0.88847615
vn -0.35002010 -0.58772844 0.72942526
vn 0.49132570 -0.71050010 0.50377442
vn 0.82755109 -0.24773246 0.50377358
vn 0.62863126 -0.26974889 0.72942325
vn 0.37127747 -0.26974869 0.88847548
vn 0.45080343 -0.51450484 0.72942515
vn 0.68488088 0.68683599 -0.24329921
vn 0.44158111 0.86360358 0.24330019
vn 0.86486298 0.43911014 -0.24329879
vn 0.95779361 0.15310683 0.24328933
vn 0.80894875 0.58773231 1.3139985e-2
vn 0.85809773 0.43646365 0.27049541
vn 0.68027062 0.68122232 0.27049591
vn -0.44158111 0.86360358 -0.24330019
vn -0.68488088 0.68683599 0.24329921
vn -0.15036316 0.95822541 -0.24330021
vn 0.15036316 0.95822541 0.24330021
vn -0.30899060 0.95097431 1.3140174e-2
vn -0.14993994 0.95097297 0.27049662
vn -0.43766857 0.85748342 0.27049658
vn -0.95779361 -0.15310683 -0.24328933
vn -0.86486297 -0.43911016 0.24329879
vn -0.95779361 0.15310683 -0.24328933
vn -0.86486298 0.43911014 0.24329879
vn -0.99991366 3.2463134e-12 1.3140363e-2
vn -0.95076318 0.15126620 0.27049568
vn -0.95076318 -0.15126620 0.27049568
vn -0.15036316 -0.95822541 -0.24330021
vn 0.15036316 -0.95822541 0.24330021
vn -0.44158115 -0.86360354 -0.24330023
vn -0.68488090 -0.68683597 0.24329918
vn -0.30899060 -0.95097431 1.3140174e-2
vn -0.43766859 -0.85748342 0.27049655
vn -0.14993994 -0.95097297 0.27049662
vn 0.86486297 -0.43911016 -0.24329879
vn 0.95779361 -0.15310683 0.24328933
vn 0.44158115 -0.86360354 0.24330023
vn 0.68488090 -0.68683597 -0.24329918
vn 0.80894873 -0.58773233 1.3139979e-2
vn 0.68027061 -0.68122231 0.27049594
vn 0.85809772 -0.43646368 0.27049541
vn -2.0125123e-2 0.86360064 -0.50377467
vn 0.52389939 0.68683372 -0.50377463
vn 0.14993994 0.95097297 -0.27049662
vn 0.30899060 0.95097431 -1.3140174e-2
vn 0.43766857 0.85748342 -0.27049658
vn -0.82755109 0.24773246 -0.50377358
vn -0.49132564 0.71050011 -0.50377446
vn -0.85809773 0.43646365 -0.27049541
vn -0.80894875 0.58773231 -1.3139985e-2
vn -0.68027062 0.68122232 -0.27049591
vn -0.49132570 -0.71050010 -0.50377442
vn -0.82755109 -0.24773246 -0.50377358
vn -0.68027061 -0.68122231 -0.27049594
vn -0.80894873 -0.58773233 -1.3139979e-2
vn -0.85809772 -0.43646368 -0.27049541
vn -2.0125097e-2 -0.86360065 -0.50377464
vn 0.52389941 -0.68683373 -0.50377460
vn 0.43766859 -0.85748342 -0.27049655
vn 0.30899060 -0.95097431 -1.3140174e-2
vn 0.14993994 -0.95097297 -0.27049662
vn 0.81511445 0.28600798 -0.50377362
vn 0.81511446 -0.28600798 -0.50377362
vn 0.95076318 0.15126620 -0.27049568
vn 0.99991366 3.2463134e-12 -1.3140363e-2
vn 0.95076318 -0.15126620 -0.27049568
vn -0.23085170 0.71049817 -0.66475548
vn -8.0492694e-2 0.24773287 -0.96547882
vn 0.60438733 0.43910847 -0.66475538
vn 0.21073497 0.15310658 -0.96547871
vn 0.14181711 0.43646081 -0.88847615
vn 0.35002013 0.58772846 -0.72942523
vn 6.2293326e-2 0.68121802 -0.72942550
vn -0.74705693 -1.7149204e-13 -0.66476007
vn -0.26048313 5.4478187e-9 -0.96547840
vn -0.37127746 0.26974869 -0.88847549
vn -0.45080340 0.51450483 -0.72942517
vn -0.62863126 0.26974889 -0.72942325
vn -0.23085173 -0.71049818 -0.66475545
vn -8.0492686e-2 -0.24773288 -0.96547882
vn -0.37127747 -0.26974869 -0.88847548
vn -0.62863126 -0.26974889 -0.72942325
vn -0.45080343 -0.51450484 -0.72942515
vn 0.21073498 -0.15310658 -0.96547871
vn 0.60438733 -0.43910844 -0.66475540
vn 0.45892426 -3.9354873e-9 -0.88847539
vn 0.66712746 0.15126583 -0.72942416
vn 0.66712746 -0.15126583 -0.72942416
vn 0.14181713 -0.43646081 -0.88847615
vn 6.2293364e-2 -0.68121801 -0.72942550
vn 0.35002010 -0.58772844 -0.72942526
g Sphere_Sphere_default
usemtl default
s 1
f 1/1/1 146/1/146 139/1/139
f 1/1/1 151/1/151 146/1/146
f 1/1/1 155/1/155 151/1/151
f 2/1/2 134/1/134 106/1/106
f 2/1/2 156/1/156 134/1/134
f 3/1/3 128/1/128 99/1/99
f 3/1/3 150/1/150 128/1/128
f 4/1/4 124/1/124 92/1/92
f 4/1/4 145/1/145 124/1/124
f 5/1/5 119/1/119 85/1/85
f 5/1/5 138/1/138 119/1/119
f 6/1/6 114/1/114 78/1/78
f 6/1/6 140/1/140 114/1/114
f 7/1/7 68/1/68 66/1/66
f 7/1/7 73/1/73 68/1/68
f 7/1/7 108/1/108 73/1/73
f 8/1/8 61/1/61 59/1/59
f 8/1/8 67/1/67 61/1/61
f 8/1/8 102/1/102 67/1/67
f 9/1/9 54/1/54 52/1/52
f 9/1/9 60/1/60 54/1/54
f 9/1/9 95/1/95 60/1/60
f 10/1/10 45/1/45 43/1/43
f 10/1/10 53/1/53 45/1/45
f 10/1/10 88/1/88 53/1/53
f 11/1/11 81/1/81 44/1/44
f 11/1/11 107/1/107 81/1/81
f 12/1/12 48/1/48 46/1/46
f 12/1/12 69/1/69 48/1/48
f 13/1/13 159/1/159 156/1/156
f 13/1/13 160/1/160 155/1/155
f 13/1/13 162/1/162 160/1/160
f 14/1/14 152/1/152 151/1/151
f 14/1/14 154/1/154 152/1/152
f 14/1/14 161/1/161 150/1/150
f 15/1/15 132/1/132 128/1/128
f 15/1/15 162/1/162 129/1/129
f 16/1/16 143/1/143 140/1/140
f 16/1/16 157/1/157 141/1/141
f 16/1/16 158/1/158 157/1/157
f 17/1/17 137/1/137 134/1/134
f 17/1/17 158/1/158 133/1/133
f 17/1/17 159/1/159 158/1/158
f 18/1/18 147/1/147 146/1/146
f 18/1/18 149/1/149 147/1/147
f 18/1/18 153/1/153 145/1/145
f 19/1/19 127/1/127 124/1/124
f 19/1/19 154/1/154 123/1/123
f 20/1/20 142/1/142 139/1/139
f 20/1/20 144/1/144 142/1/142
f 20/1/20 148/1/148 138/1/138
f 21/1/21 122/1/122 119/1/119
f 21/1/21 149/1/149 118/1/118
f 22/1/22 117/1/117 114/1/114
f 22/1/22 144/1/144 113/1/113
f 23/1/23 83/1/83 81/1/81
f 23/1/23 135/1/135 80/1/80
f 23/1/23 136/1/136 135/1/135
f 24/1/24 110/1/110 106/1/106
f 24/1/24 112/1/112 110/1/110
f 24/1/24 136/1/136 107/1/107
f 24/1/24 137/1/137 136/1/136
f 25/1/25 111/1/111 108/1/108
f 25/1/25 130/1/130 109/1/109
f 25/1/25 131/1/131 130/1/130
f 26/1/26 103/1/103 99/1/99
f 26/1/26 105/1/105 103/1/103
f 26/1/26 131/1/131 100/1/100
f 26/1/26 132/1/132 131/1/131
f 27/1/27 104/1/104 102/1/102
f 27/1/27 125/1/125 101/1/101
f 27/1/27 126/1/126 125/1/125
f 28/1/28 96/1/96 92/1/92
f 28/1/28 98/1/98 96/1/96
f 28/1/28 126/1/126 93/1/93
f 28/1/28 127/1/127 126/1/126
f 29/1/29 97/1/97 95/1/95
f 29/1/29 120/1/120 94/1/94
f 29/1/29 121/1/121 120/1/120
f 30/1/30 89/1/89 85/1/85
f 30/1/30 91/1/91 89/1/89
f 30/1/30 121/1/121 86/1/86
f 30/1/30 122/1/122 121/1/121
f 31/1/31 90/1/90 88/1/88
f 31/1/31 115/1/115 87/1/87
f 31/1/31 116/1/116 115/1/115
f 32/1/32 82/1/82 78/1/78
f 32/1/32 84/1/84 82/1/82
f 32/1/32 116/1/116 79/1/79
f 32/1/32 117/1/117 116/1/116
f 33/1/33 77/1/77 73/1/73
f 33/1/33 112/1/112 74/1/74
f 34/1/34 72/1/72 67/1/67
f 34/1/34 105/1/105 66/1/66
f 35/1/35 65/1/65 60/1/60
f 35/1/35 98/1/98 59/1/59
f 36/1/36 58/1/58 53/1/53
f 36/1/36 91/1/91 52/1/52
f 37/1/37 51/1/51 44/1/44
f 37/1/37 84/1/84 43/1/43
f 38/1/38 50/1/50 48/1/48
f 38/1/38 51/1/51 50/1/50
f 38/1/38 75/1/75 47/1/47
f 38/1/38 76/1/76 75/1/75
f 39/1/39 70/1/70 68/1/68
f 39/1/39 71/1/71 70/1/70
f 39/1/39 76/1/76 69/1/69
f 39/1/39 77/1/77 76/1/76
f 40/1/40 63/1/63 61/1/61
f 40/1/40 64/1/64 63/1/63
f 40/1/40 71/1/71 62/1/62
f 40/1/40 72/1/72 71/1/71
f 41/1/41 56/1/56 54/1/54
f 41/1/41 57/1/57 56/1/56
f 41/1/41 64/1/64 55/1/55
f 41/1/41 65/1/65 64/1/64
f 42/1/42 49/1/49 45/1/45
f 42/1/42 50/1/50 49/1/49
f 42/1/42 57/1/57 46/1/46
f 42/1/42 58/1/58 57/1/57
f 43/1/43 49/1/49 37/1/37
f 43/1/43 79/1/79 10/1/10
f 43/1/43 84/1/84 79/1/79
f 44/1/44 47/1/47 11/1/11
f 44/1/44 51/1/51 47/1/47
f 44/1/44 83/1/83 37/1/37
f 45/1/45 49/1/49 43/1/43
f 45/1/45 58/1/58 42/1/42
f 46/1/46 50/1/50 42/1/42
f 46/1/46 55/1/55 12/1/12
f 46/1/46 57/1/57 55/1/55
f 47/1/47 51/1/51 38/1/38
f 47/1/47 74/1/74 11/1/11
f 47/1/47 75/1/75 74/1/74
f 48/1/48 50/1/50 46/1/46
f 48/1/48 76/1/76 38/1/38
f 49/1/49 51/1/51 37/1/37
f 50/1/50 51/1/51 49/1/49
f 52/1/52 56/1/56 36/1/36
f 52/1/52 86/1/86 9/1/9
f 52/1/52 91/1/91 86/1/86
f 53/1/53 58/1/58 45/1/45
f 53/1/53 90/1/90 36/1/36
f 54/1/54 56/1/56 52/1/52
f 54/1/54 65/1/65 41/1/41
f 55/1/55 57/1/57 41/1/41
f 55/1/55 62/1/62 12/1/12
f 55/1/55 64/1/64 62/1/62
f 56/1/56 58/1/58 36/1/36
f 57/1/57 58/1/58 56/1/56
f 59/1/59 63/1/63 35/1/35
f 59/1/59 93/1/93 8/1/8
f 59/1/59 98/1/98 93/1/93
f 60/1/60 65/1/65 54/1/54
f 60/1/60 97/1/97 35/1/35
f 61/1/61 63/1/63 59/1/59
f 61/1/61 72/1/72 40/1/40
f 62/1/62 64/1/64 40/1/40
f 62/1/62 69/1/69 12/1/12
f 62/1/62 71/1/71 69/1/69
f 63/1/63 65/1/65 35/1/35
f 64/1/64 65/1/65 63/1/63
f 66/1/66 70/1/70 34/1/34
f 66/1/66 100/1/100 7/1/7
f 66/1/66 105/1/105 100/1/100
f 67/1/67 72/1/72 61/1/61
f 67/1/67 104/1/104 34/1/34
f 68/1/68 70/1/70 66/1/66
f 68/1/68 77/1/77 39/1/39
f 69/1/69 71/1/71 39/1/39
f 69/1/69 76/1/76 48/1/48
f 70/1/70 72/1/72 34/1/34
f 71/1/71 72/1/72 70/1/70
f 73/1/73 77/1/77 68/1/68
f 73/1/73 111/1/111 33/1/33
f 74/1/74 75/1/75 33/1/33
f 74/1/74 107/1/107 11/1/11
f 74/1/74 112/1/112 107/1/107
f 75/1/75 77/1/77 33/1/33
f 76/1/76 77/1/77 75/1/75
f 78/1/78 80/1/80 6/1/6
f 78/1/78 82/1/82 80/1/80
f 78/1/78 117/1/117 32/1/32
f 79/1/79 84/1/84 32/1/32
f 79/1/79 88/1/88 10/1/10
f 79/1/79 116/1/116 88/1/88
f 80/1/80 82/1/82 23/1/23
f 80/1/80 133/1/133 6/1/6
f 80/1/80 135/1/135 133/1/133
f 81/1/81 83/1/83 44/1/44
f 81/1/81 136/1/136 23/1/23
f 82/1/82 83/1/83 23/1/23
f 82/1/82 84/1/84 83/1/83
f 83/1/83 84/1/84 37/1/37
f 85/1/85 87/1/87 5/1/5
f 85/1/85 89/1/89 87/1/87
f 85/1/85 122/1/122 30/1/30
f 86/1/86 91/1/91 30/1/30
f 86/1/86 95/1/95 9/1/9
f 86/1/86 121/1/121 95/1/95
f 87/1/87 89/1/89 31/1/31
f 87/1/87 113/1/113 5/1/5
f 87/1/87 115/1/115 113/1/113
f 88/1/88 90/1/90 53/1/53
f 88/1/88 116/1/116 31/1/31
f 89/1/89 90/1/90 31/1/31
f 89/1/89 91/1/91 90/1/90
f 90/1/90 91/1/91 36/1/36
f 92/1/92 94/1/94 4/1/4
f 92/1/92 96/1/96 94/1/94
f 92/1/92 127/1/127 28/1/28
f 93/1/93 98/1/98 28/1/28
f 93/1/93 102/1/102 8/1/8
f 93/1/93 126/1/126 102/1/102
f 94/1/94 96/1/96 29/1/29
f 94/1/94 118/1/118 4/1/4
f 94/1/94 120/1/120 118/1/118
f 95/1/95 97/1/97 60/1/60
f 95/1/95 121/1/121 29/1/29
f 96/1/96 97/1/97 29/1/29
f 96/1/96 98/1/98 97/1/97
f 97/1/97 98/1/98 35/1/35
f 99/1/99 101/1/101 3/1/3
f 99/1/99 103/1/103 101/1/101
f 99/1/99 132/1/132 26/1/26
f 100/1/100 105/1/105 26/1/26
f 100/1/100 108/1/108 7/1/7
f 100/1/100 131/1/131 108/1/108
f 101/1/101 103/1/103 27/1/27
f 101/1/101 123/1/123 3/1/3
f 101/1/101 125/1/125 123/1/123
f 102/1/102 104/1/104 67/1/67
f 102/1/102 126/1/126 27/1/27
f 103/1/103 104/1/104 27/1/27
f 103/1/103 105/1/105 104/1/104
f 104/1/104 105/1/105 34/1/34
f 106/1/106 109/1/109 2/1/2
f 106/1/106 110/1/110 109/1/109
f 106/1/106 137/1/137 24/1/24
f 107/1/107 112/1/112 24/1/24
f 107/1/107 136/1/136 81/1/81
f 108/1/108 111/1/111 73/1/73
f 108/1/108 131/1/131 25/1/25
f 109/1/109 110/1/110 25/1/25
f 109/1/109 129/1/129 2/1/2
f 109/1/109 130/1/130 129/1/129
f 110/1/110 111/1/111 25/1/25
f 110/1/110 112/1/112 111/1/111
f 111/1/111 112/1/112 33/1/33
f 113/1/113 115/1/115 22/1/22
f 113/1/113 138/1/138 5/1/5
f 113/1/113 144/1/144 138/1/138
f 114/1/114 117/1/117 78/1/78
f 114/1/114 143/1/143 22/1/22
f 115/1/115 117/1/117 22/1/22
f 116/1/116 117/1/117 115/1/115
f 118/1/118 120/1/120 21/1/21
f 118/1/118 145/1/145 4/1/4
f 118/1/118 149/1/149 145/1/145
f 119/1/119 122/1/122 85/1/85
f 119/1/119 148/1/148 21/1/21
f 120/1/120 122/1/122 21/1/21
f 121/1/121 122/1/122 120/1/120
f 123/1/123 125/1/125 19/1/19
f 123/1/123 150/1/150 3/1/3
f 123/1/123 154/1/154 150/1/150
f 124/1/124 127/1/127 92/1/92
f 124/1/124 153/1/153 19/1/19
f 125/1/125 127/1/127 19/1/19
f 126/1/126 127/1/127 125/1/125
f 128/1/128 132/1/132 99/1/99
f 128/1/128 161/1/161 15/1/15
f 129/1/129 130/1/130 15/1/15
f 129/1/129 156/1/156 2/1/2
f 129/1/129 162/1/162 156/1/156
f 130/1/130 132/1/132 15/1/15
f 131/1/131 132/1/132 130/1/130
f 133/1/133 135/1/135 17/1/17
f 133/1/133 140/1/140 6/1/6
f 133/1/133 158/1/158 140/1/140
f 134/1/134 137/1/137 106/1/106
f 134/1/134 159/1/159 17/1/17
f 135/1/135 137/1/137 17/1/17
f 136/1/136 137/1/137 135/1/135
f 138/1/138 144/1/144 20/1/20
f 138/1/138 148/1/148 119/1/119
f 139/1/139 141/1/141 1/1/1
f 139/1/139 142/1/142 141/1/141
f 139/1/139 147/1/147 20/1/20
f 140/1/140 143/1/143 114/1/114
f 140/1/140 158/1/158 16/1/16
f 141/1/141 142/1/142 16/1/16
f 141/1/141 155/1/155 1/1/1
f 141/1/141 157/1/157 155/1/155
f 142/1/142 143/1/143 16/1/16
f 142/1/142 144/1/144 143/1/143
f 143/1/143 144/1/144 22/1/22
f 145/1/145 149/1/149 18/1/18
f 145/1/145 153/1/153 124/1/124
f 146/1/146 147/1/147 139/1/139
f 146/1/146 152/1/152 18/1/18
f 147/1/147 148/1/148 20/1/20
f 147/1/147 149/1/149 148/1/148
f 148/1/148 149/1/149 21/1/21
f 150/1/150 154/1/154 14/1/14
f 150/1/150 161/1/161 128/1/128
f 151/1/151 152/1/152 146/1/146
f 151/1/151 160/1/160 14/1/14
f 152/1/152 153/1/153 18/1/18
f 152/1/152 154/1/154 153/1/153
f 153/1/153 154/1/154 19/1/19
f 155/1/155 157/1/157 13/1/13
f 155/1/155 160/1/160 151/1/151
f 156/1/156 159/1/159 134/1/134
f 156/1/156 162/1/162 13/1/13
f 157/1/157 159/1/159 13/1/13
f 158/1/158 159/1/159 157/1/157
f 160/1/160 161/1/161 14/1/14
f 160/1/160 162/1/162 161/1/161
f 161/1/161 162/1/162 15/1/15
