# exported by https://3dviewer.net
mtllib model.mtl
g sphere1_default
v 0.009796420833333333 0.013483616499999998 0.1
v 0.015850942 0.005150283166666667 0.1
v 0.0112083085 0.005150283166666667 0.0887916915
v 0.0069271156666666665 0.013483616499999998 0.09307288433333334
v 0.0 0.016666666666666666 0.1
v 0.0069271156666666665 0.013483616499999998 0.10692711566666667
v 0.0112083085 0.005150283166666667 0.1112083085
v 5.998577666666666e-19 0.013483616499999998 0.10979642083333334
v 9.705902666666667e-19 0.005150283166666667 0.11585094200000001
v -0.0069271156666666665 0.013483616499999998 0.10692711566666667
v -0.0112083085 0.005150283166666667 0.1112083085
v -0.009796420833333333 0.013483616499999998 0.1
v -0.015850942 0.005150283166666667 0.1
v -0.0069271156666666665 0.013483616499999998 0.09307288433333334
v -0.0112083085 0.005150283166666667 0.0887916915
v -1.799573333333333e-18 0.013483616499999998 0.09020357916666667
v -2.911770833333333e-18 0.005150283166666667 0.084149058
v 0.015850942 -0.005150283166666667 0.1
v 0.0112083085 -0.005150283166666667 0.0887916915
v 0.0112083085 -0.005150283166666667 0.1112083085
v 9.705902666666667e-19 -0.005150283166666667 0.11585094200000001
v -0.0112083085 -0.005150283166666667 0.1112083085
v -0.015850942 -0.005150283166666667 0.1
v -0.0112083085 -0.005150283166666667 0.0887916915
v -2.911770833333333e-18 -0.005150283166666667 0.084149058
v 0.009796420833333333 -0.013483616499999998 0.1
v 0.0069271156666666665 -0.013483616499999998 0.09307288433333334
v 0.0069271156666666665 -0.013483616499999998 0.10692711566666667
v 5.998577666666666e-19 -0.013483616499999998 0.10979642083333334
v -0.0069271156666666665 -0.013483616499999998 0.10692711566666667
v -0.009796420833333333 -0.013483616499999998 0.1
v -0.0069271156666666665 -0.013483616499999998 0.09307288433333334
v -1.799573333333333e-18 -0.013483616499999998 0.09020357916666667
v 0.0 -0.016666666666666666 0.1
vn 0.58184466 0.81329994 4.5126608e-17
vn 0.94974485 0.3130251 -4.6767283e-17
vn 0.67157103 0.3130251 -0.67157103
vn 0.4114263 0.81329994 -0.4114263
vn -7.3555098e-18 1 -3.6777549e-18
vn 0.4114263 0.81329994 0.4114263
vn 0.67157103 0.3130251 0.67157103
vn 1.5042203e-17 0.81329994 0.58184466
vn 4.6767283e-17 0.3130251 0.94974485
vn -0.4114263 0.81329994 0.4114263
vn -0.67157103 0.3130251 0.67157103
vn -0.58184466 0.81329994 0
vn -0.94974485 0.3130251 1.2471275e-16
vn -0.4114263 0.81329994 -0.4114263
vn -0.67157103 0.3130251 -0.67157103
vn -6.016881e-17 0.81329994 -0.58184466
vn -1.2471275e-16 0.3130251 -0.94974485
vn 0.94974485 -0.3130251 -3.1178188e-17
vn 0.67157103 -0.3130251 -0.67157103
vn 0.67157103 -0.3130251 0.67157103
vn 4.6767283e-17 -0.3130251 0.94974485
vn -0.67157103 -0.3130251 0.67157103
vn -0.94974485 -0.3130251 1.5589094e-16
vn -0.67157103 -0.3130251 -0.67157103
vn -1.4030185e-16 -0.3130251 -0.94974485
vn 0.58184466 -0.81329994 0
vn 0.4114263 -0.81329994 -0.4114263
vn 0.4114263 -0.81329994 0.4114263
vn 1.5042203e-17 -0.81329994 0.58184466
vn -0.4114263 -0.81329994 0.4114263
vn -0.58184466 -0.81329994 1.2033762e-16
vn -0.4114263 -0.81329994 -0.4114263
vn -9.0253216e-17 -0.81329994 -0.58184466
vn -1.471102e-17 -1 3.6777549e-18
usemtl Material
f 1/0/1 2/0/2 3/0/3
f 1/0/1 3/0/3 4/0/4
f 1/0/1 5/0/5 6/0/6
f 6/0/6 7/0/7 2/0/2
f 6/0/6 2/0/2 1/0/1
f 6/0/6 5/0/5 8/0/8
f 8/0/8 9/0/9 7/0/7
f 8/0/8 7/0/7 6/0/6
f 8/0/8 5/0/5 10/0/10
f 10/0/10 11/0/11 9/0/9
f 10/0/10 9/0/9 8/0/8
f 10/0/10 5/0/5 12/0/12
f 12/0/12 13/0/13 11/0/11
f 12/0/12 11/0/11 10/0/10
f 12/0/12 5/0/5 14/0/14
f 14/0/14 15/0/15 13/0/13
f 14/0/14 13/0/13 12/0/12
f 14/0/14 5/0/5 16/0/16
f 16/0/16 17/0/17 15/0/15
f 16/0/16 15/0/15 14/0/14
f 16/0/16 5/0/5 4/0/4
f 4/0/4 3/0/3 17/0/17
f 4/0/4 17/0/17 16/0/16
f 4/0/4 5/0/5 1/0/1
f 2/0/2 18/0/18 19/0/19
f 2/0/2 19/0/19 3/0/3
f 7/0/7 20/0/20 18/0/18
f 7/0/7 18/0/18 2/0/2
f 9/0/9 21/0/21 20/0/20
f 9/0/9 20/0/20 7/0/7
f 11/0/11 22/0/22 21/0/21
f 11/0/11 21/0/21 9/0/9
f 13/0/13 23/0/23 22/0/22
f 13/0/13 22/0/22 11/0/11
f 15/0/15 24/0/24 23/0/23
f 15/0/15 23/0/23 13/0/13
f 17/0/17 25/0/25 24/0/24
f 17/0/17 24/0/24 15/0/15
f 3/0/3 19/0/19 25/0/25
f 3/0/3 25/0/25 17/0/17
f 18/0/18 26/0/26 27/0/27
f 18/0/18 27/0/27 19/0/19
f 20/0/20 28/0/28 26/0/26
f 20/0/20 26/0/26 18/0/18
f 21/0/21 29/0/29 28/0/28
f 21/0/21 28/0/28 20/0/20
f 22/0/22 30/0/30 29/0/29
f 22/0/22 29/0/29 21/0/21
f 23/0/23 31/0/31 30/0/30
f 23/0/23 30/0/30 22/0/22
f 24/0/24 32/0/32 31/0/31
f 24/0/24 31/0/31 23/0/23
f 25/0/25 33/0/33 32/0/32
f 25/0/25 32/0/32 24/0/24
f 19/0/19 27/0/27 33/0/33
f 19/0/19 33/0/33 25/0/25
f 26/0/26 34/0/34 27/0/27
f 28/0/28 34/0/34 26/0/26
f 29/0/29 34/0/34 28/0/28
f 30/0/30 34/0/34 29/0/29
f 31/0/31 34/0/34 30/0/30
f 32/0/32 34/0/34 31/0/31
f 33/0/33 34/0/34 32/0/32
f 27/0/27 34/0/34 33/0/33
